<svg width="41" height="40" viewBox="0 0 41 40" fill="none" xmlns="http://www.w3.org/2000/svg">
<path fill-rule="evenodd" clip-rule="evenodd" d="M30.7027 22.2658L33.0726 22.1174L28.0399 16.834L24.5731 22.6499L26.244 22.5453C25.2413 26.0402 23.6335 29.8273 21.2953 32.7025C19.5935 34.7941 17.9125 35.9196 16.656 35.5831C14.9344 35.1221 14.2731 32.067 14.0526 30.5844C12.5676 30.3372 11.0976 29.9982 9.6875 29.555C9.98128 33.3957 11.362 38.5493 15.563 39.6747C18.5788 40.4828 21.8021 38.7783 24.5748 35.3694C27.5388 31.7265 29.5808 26.7583 30.7027 22.2658Z" fill="#0582C1"/>
<path fill-rule="evenodd" clip-rule="evenodd" d="M10.712 18.6951L8.36328 18.8994L13.5229 24.0595L16.8474 18.1607L15.193 18.3049C16.1948 14.7665 17.8139 10.9238 20.1797 8.01444C21.8814 5.92273 23.5627 4.79728 24.819 5.13375C26.5405 5.59491 27.2018 8.64987 27.4224 10.1325C28.9074 10.3797 30.3773 10.7186 31.7875 11.1619C31.4937 7.32115 30.113 2.16765 25.912 1.04215C22.8962 0.234107 19.6728 1.93861 16.9001 5.34733C13.8888 9.0488 11.822 14.1285 10.712 18.6951Z" fill="#0582C1"/>
<path fill-rule="evenodd" clip-rule="evenodd" d="M17.6821 30.3762L17.5753 32.4114L23.4012 28.0176L18.0213 23.9064L17.904 26.1435C15.8623 25.9909 4.97892 24.396 4.97892 20.359C4.97892 19.0578 6.49922 17.7261 8.95694 16.6253C9.5461 16.3613 10.1823 16.1173 10.8596 15.896C11.3681 14.2691 11.99 12.6235 12.7262 11.0332C10.6828 11.4636 8.82616 12.0527 7.23427 12.7658C3.22082 14.5634 0.738281 17.2366 0.738281 20.359C0.738281 27.5627 12.1866 29.9704 17.6821 30.3762Z" fill="#00A9FF"/>
<path fill-rule="evenodd" clip-rule="evenodd" d="M18.6055 12.1999L23.7315 16.6236L23.9578 14.6074C26.0348 14.7847 36.4959 16.4259 36.4959 20.3608C36.4959 21.662 34.9756 22.9937 32.5178 24.0945C31.9287 24.3585 31.2924 24.6024 30.6152 24.8238C30.1067 26.4507 29.4847 28.0963 28.7486 29.6866C30.7919 29.2562 32.6487 28.667 34.2405 27.9539C38.254 26.1564 40.7365 23.4832 40.7365 20.3608C40.7365 13.3682 29.8704 10.8845 24.4311 10.3956L24.6822 8.16016L18.6055 12.1999Z" fill="#00A9FF"/>
</svg>
